# xmcd
#
# Track frame offsets: 
#        150
#        11965
#        25560
#        38507
#        51550
#        64582
#        77605
#        91357
#        104217
#        116595
#        127952
#        142002
#        154587
#        166970
#        180112
#
# Disc length: 2572 seconds
#
# Revision: 0
# Processed by: cddbd v1.5.2PL0 Copyright (c) Steve Scherf et al.
# Submitted via: ExactAudioCopy v0.95b4
#
DISCID=bc0a0a0f
DTITLE=Various Artist - Savoy Jazz R and B Reflections: Completer Disc
DYEAR=1995
DGENRE=Jazz
TTITLE0=In a Sentimental Mood {Billy Eckstine}
TTITLE1=Blues for Sale {Billy Eckstine}
TTITLE2=Serenade in Blue {Billy Eckstine}
TTITLE3=Solitude {Billy Eckstine}
TTITLE4=Sophisticated Lady {Billy Eckstine}
TTITLE5=Careless Love {Big Joe Turner}
TTITLE6=Last Goodbye Blues {Big Joe Turner}
TTITLE7=Whistle Stop Blues {Big Joe Turner}
TTITLE8=Hollywood Bed {Big Joe Turner}
TTITLE9=Howlin' Winds {Johnny Otis}
TTITLE10=Because I Love My Baby So {Johnny Otis}
TTITLE11=Beer Bottle Boogie {Johnny Otis}
TTITLE12=Uneasy Blues {Johnny Otis}
TTITLE13=Love Will Break Your Heart for You {Johnny Otis}
TTITLE14=Rockin' Blues {Johnny Otis}
EXTD=
EXTT0=
EXTT1=
EXTT2=
EXTT3=
EXTT4=
EXTT5=
EXTT6=
EXTT7=
EXTT8=
EXTT9=
EXTT10=
EXTT11=
EXTT12=
EXTT13=
EXTT14=
PLAYORDER=
